<svg id="396f78f3-35dd-440d-a35c-99c04f4bff3b" data-name="Layer 1" xmlns="http://www.w3.org/2000/svg" viewBox="0 0 271.95 32.64"><defs><style>.\31 0c89f57-0ffd-422b-b40e-20df5800b7a8{fill:none;}</style></defs><title>logo</title><path class="10c89f57-0ffd-422b-b40e-20df5800b7a8" d="M309.24,265.63V282h-3.79l-0.14-4c-1.82,2.83-5,4.51-9.7,4.51-8.88,0-14.69-6.15-14.69-16.32s6-16.32,15.07-16.32c6.58,0,10.61,2.35,13.06,7.49l-4.7,2.26c-1.25-3.5-4.27-5.28-8.26-5.28-6,0-9.79,4.32-9.79,11.86s3.41,11.9,9.89,11.9c4.8,0,8.5-2.4,8.5-7.3v-0.91H295v-4.22h14.26Z" transform="translate(-240.47 -249.84)"/><path class="10c89f57-0ffd-422b-b40e-20df5800b7a8" d="M339.24,270c0,7.82-4.46,12.48-12,12.48s-12-4.66-12-12.48,4.46-12.48,12-12.48S339.24,262.17,339.24,270Zm-18.72,0c0,5.42,2.45,8.45,6.77,8.45s6.82-3,6.82-8.45-2.5-8.45-6.82-8.45S320.51,264.57,320.51,270Z" transform="translate(-240.47 -249.84)"/><path class="10c89f57-0ffd-422b-b40e-20df5800b7a8" d="M343.79,277.44l3.46-3c1.25,2.88,4.08,4,7.44,4s5.14-1.25,5.14-2.88-1.39-2.35-5.57-3.17c-7.15-1.34-9.65-3.41-9.65-7.44s3.65-7.44,10.08-7.44c5.33,0,8.35,1.73,10.08,5.42L361,265.73c-1.1-2.93-3.17-4.18-6.29-4.18s-5,1.44-5,2.93c0,1.73,1.39,2.64,5.9,3.46,6.86,1.25,9.31,3.31,9.31,7.3,0,4.22-3.84,7.25-10.47,7.25C349.84,282.48,345.81,280.94,343.79,277.44Z" transform="translate(-240.47 -249.84)"/><path class="10c89f57-0ffd-422b-b40e-20df5800b7a8" d="M369.19,277.44l3.46-3c1.25,2.88,4.08,4,7.44,4s5.14-1.25,5.14-2.88-1.39-2.35-5.57-3.17C372.5,271.06,370,269,370,265s3.65-7.44,10.08-7.44c5.33,0,8.35,1.73,10.08,5.42l-3.74,2.78c-1.1-2.93-3.17-4.18-6.29-4.18s-5,1.44-5,2.93c0,1.73,1.39,2.64,5.9,3.46,6.86,1.25,9.31,3.31,9.31,7.3,0,4.22-3.84,7.25-10.47,7.25C375.23,282.48,371.2,280.94,369.19,277.44Z" transform="translate(-240.47 -249.84)"/><path class="10c89f57-0ffd-422b-b40e-20df5800b7a8" d="M419.11,278.45l-0.34,3.46a7.45,7.45,0,0,1-3,.58c-2.64,0-4.37-.91-4.9-3.55-1.49,2.26-4.56,3.55-8.11,3.55-4.51,0-7.82-2.11-7.82-6.29,0-3.7,3.07-6.43,9.36-7.54l6.1-1.06v-1.3c0-2.88-1.78-4.75-4.9-4.75a5.94,5.94,0,0,0-6.19,4.32l-4-2.11c1.15-3.79,4.85-6.24,10.08-6.24,6,0,10.13,2.74,10.13,8.5v10.85a1.52,1.52,0,0,0,1.78,1.78A7,7,0,0,0,419.11,278.45ZM410.42,274v-2.88l-5.23,1.06c-3.26.62-4.9,1.73-4.9,3.65s1.34,2.74,3.6,2.74C407.11,278.59,410.42,276.91,410.42,274Z" transform="translate(-240.47 -249.84)"/><path class="10c89f57-0ffd-422b-b40e-20df5800b7a8" d="M461.73,266.45V282h-5.14V267.26c0-3.94-2.11-5.52-4.94-5.52-3.36,0-6.24,2.54-6.24,7.2V282h-5.14V267.26c0-3.94-2.11-5.52-4.94-5.52s-6.24,2.11-6.24,7.49V282H424V258h4.56l0.24,4a8.65,8.65,0,0,1,7.78-4.46c3.46,0,6.62,1.54,8.11,4.8a9,9,0,0,1,8.26-4.8C457.51,257.52,461.73,260.35,461.73,266.45Z" transform="translate(-240.47 -249.84)"/><path class="10c89f57-0ffd-422b-b40e-20df5800b7a8" d="M490.77,271.92H473.2c0.58,4.22,3.12,6.48,7,6.48,3.17,0,5.28-1.15,6-3.26l4.27,1.78c-1.73,3.55-5,5.57-10.32,5.57-7.58,0-12-4.66-12-12.48s4.22-12.48,11.71-12.48c7.2,0,11.14,4.8,11.14,11.76A20,20,0,0,1,490.77,271.92ZM473.2,268h13c-0.53-4-2.78-6.38-6.34-6.38C476.08,261.6,473.78,263.85,473.2,268Z" transform="translate(-240.47 -249.84)"/><path class="10c89f57-0ffd-422b-b40e-20df5800b7a8" d="M512.42,258l-0.82,4.7a6.32,6.32,0,0,0-3-.62c-2.88,0-6,2.3-6,7.2V282h-5.14V258h4.37l0.43,4.32c1.3-3.12,3.84-4.8,7.59-4.8A6.33,6.33,0,0,1,512.42,258Z" transform="translate(-240.47 -249.84)"/><path class="10c89f57-0ffd-422b-b40e-20df5800b7a8" d="M250.28,276.36c0,3.82-2.25,5.94-6,5.94h-3.84V270.42h3.84C248,270.42,250.28,272.54,250.28,276.36Zm-1.51,0c0-2.88-1.6-4.59-4.32-4.59h-2.54v9.18h2.54C247.17,280.95,248.77,279.24,248.77,276.36Z" transform="translate(-240.47 -249.84)"/><path class="10c89f57-0ffd-422b-b40e-20df5800b7a8" d="M260.83,278.34H254a2.85,2.85,0,0,0,2.94,2.88c1.31,0,2.21-.47,2.54-1.33l1.21,0.63a3.85,3.85,0,0,1-3.75,2c-2.72,0-4.36-1.77-4.36-4.68s1.53-4.68,4.25-4.68a3.9,3.9,0,0,1,4,4.21A7.05,7.05,0,0,1,260.83,278.34Zm-6.77-1.28h5.46c-0.2-1.66-1.12-2.68-2.65-2.68A2.71,2.71,0,0,0,254.06,277.06Z" transform="translate(-240.47 -249.84)"/><path class="10c89f57-0ffd-422b-b40e-20df5800b7a8" d="M265.24,282.3H263.8V270.42h1.44V282.3Z" transform="translate(-240.47 -249.84)"/><path class="10c89f57-0ffd-422b-b40e-20df5800b7a8" d="M273.92,282.48c-3.38,0-5.51-2.36-5.51-6.12s2.16-6.12,5.47-6.12a4.55,4.55,0,0,1,4.61,2.77l-1.42.67a3,3,0,0,0-3.08-2.09c-2.43,0-4.07,1.76-4.07,4.77s1.53,4.77,4,4.77a3.32,3.32,0,0,0,3.35-2.41l1.44,0.54A4.89,4.89,0,0,1,273.92,282.48Z" transform="translate(-240.47 -249.84)"/></svg>